<svg width="349.7750732421875px" height="120.8000274658203px" xmlns="http://www.w3.org/2000/svg" viewBox="75.11246337890626 14.599986267089847 349.7750732421875 120.8000274658203" style="background: rgb(255, 255, 255);" preserveAspectRatio="xMidYMid"><defs><filter id="editing-vintage" x="-100%" y="-100%" width="300%" height="300%"><feConvolveMatrix in="SourceGraphic" result="extrude" order="5,5" divisor="1" kernelMatrix="1,0,0,0,0,0,1,0,0,0,0,0,1,0,0,0,0,0,1,0,0,0,0,0,1"> </feConvolveMatrix><feFlood flood-color="#900" result="flood-extrude"></feFlood><feComposite operator="in" in="flood-extrude" in2="extrude" result="extrude-color"></feComposite><feOffset dx="3" dy="3" in="extrude-color" result="extrude-offset"></feOffset><feColorMatrix in="SourceGraphic" result="stroke" type="matrix" values="0 0 0 0 0 0 0 0 0 0 0 0 0 0 0 0 1 0 0 0 "></feColorMatrix><feColorMatrix in="SourceGraphic" result="fill" type="matrix" values="0 0 0 0 0 0 0 0 0 0 0 0 0 0 0 1 0 0 1 0 "></feColorMatrix><feConvolveMatrix in="stroke" result="inner-shadow" order="5,5" divisor="1" kernelMatrix="1 0 0 0 0 0 1 0 0 0 0 0 1 0 0 0 0 0 1 0 0 0 0 0 1 "></feConvolveMatrix><feOffset dx="1" dy="1" in="inner-shadow" result="offset"></feOffset><feComposite operator="in" in="offset" in2="SourceAlpha" result="comp"></feComposite><feFlood flood-color="#000" result="flood3"></feFlood><feComposite operator="in" in="flood3" in2="comp" result="comp2"></feComposite><feColorMatrix in="comp2" result="comp3" type="matrix" values="1 0 0 0 0 0 1 0 0 0 0 0 1 0 0 0 0 0 0.5 0 "></feColorMatrix><feFlood flood-color="#f00" result="flood1"></feFlood><feComposite operator="in" in="flood1" in2="fill" result="fill2"></feComposite><feFlood flood-color="#fff" result="flood2"></feFlood><feComposite operator="in" in="flood2" in2="stroke" result="stroke2"></feComposite><feMerge result="obj"><feMergeNode in="extrude-offset"></feMergeNode><feMergeNode in="fill2"></feMergeNode><feMergeNode in="comp3"></feMergeNode></feMerge><feConvolveMatrix in="SourceAlpha" result="shadow" order="5,5" divisor="1" kernelMatrix="1,0,0,0,0,0,1,0,0,0,0,0,1,0,0,0,0,0,1,0,0,0,0,0,1"></feConvolveMatrix><feOffset dx="9" dy="9" in="shadow" result="shadow-offset"></feOffset><feFlood flood-color="#444444" result="flood-shadow"></feFlood><feComposite operator="in" in="flood-shadow" in2="shadow-offset" result="shadow-color"></feComposite><feMerge><feMergeNode in="shadow-color"></feMergeNode><feMergeNode in="obj"></feMergeNode></feMerge></filter></defs><g transform="translate(-5,-5)"><g filter="url(#editing-vintage)"><g transform="translate(129.9050262272358, 104.44000053405762)"><path d="M26.11-42.69L26.11-42.69L26.11-42.69Q41.79-42.69 41.79-31.62L41.79-31.62L41.79-31.62Q41.79-25.54 37.89-21.89L37.89-21.89L37.89-21.89Q34.05-18.24 27.33-18.24L27.33-18.24L27.33-18.24Q24.19-18.24 21.76-20.03L21.76-20.03L21.76-20.03Q20.61-20.80 19.84-21.82L19.84-21.82L19.84-21.82Q24.51-21.82 26.98-24.67L26.98-24.67L26.98-24.67Q29.44-27.52 29.44-33.09L29.44-33.09L29.44-33.09Q29.44-38.66 23.94-38.66L23.94-38.66L22.40-38.66L22.40-38.66Q22.02-38.66 21.70-38.59L21.70-38.59L14.34 0L0.45 0L8.32-41.92L8.32-41.92Q15.17-42.56 19.14-42.62L19.14-42.62L19.14-42.62Q23.10-42.69 26.11-42.69ZM47.23-31.17L47.23-31.17L47.23-31.17Q45.06-32.83 45.06-36.38L45.06-36.38L45.06-36.38Q45.06-39.94 47.39-41.79L47.39-41.79L47.39-41.79Q49.73-43.65 53.76-43.65L53.76-43.65L53.76-43.65Q56.32-43.65 62.40-42.75L62.40-42.75L66.75-42.11L66.75-42.11Q68.93-41.86 71.20-41.86L71.20-41.86L71.20-41.86Q73.47-41.86 75.01-42.82L75.01-42.82L75.01-42.82Q77.31-40.77 77.31-37.82L77.31-37.82L77.31-37.82Q77.31-34.88 74.69-32.77L74.69-32.77L74.69-32.77Q72-30.53 68.54-30.53L68.54-30.53L68.54-30.53Q66.88-30.53 64.19-30.98L64.19-30.98L64.19-30.98Q61.06-21.12 61.06-14.27L61.06-14.27L61.06-14.27Q61.06-7.42 64.51-3.84L64.51-3.84L64.51-3.84Q62.91-0.96 60.54 0.16L60.54 0.16L60.54 0.16Q58.18 1.28 54.62 1.28L54.62 1.28L54.62 1.28Q51.07 1.28 48.86-0.67L48.86-0.67L48.86-0.67Q46.66-2.62 46.66-6.66L46.66-6.66L46.66-6.66Q46.66-11.33 49.22-19.01L49.22-19.01L49.22-19.01Q51.78-26.62 55.62-32.45L55.62-32.45L55.62-32.45Q53.76-32.64 51.84-32.64L51.84-32.64L51.84-32.64Q47.87-32.64 47.23-31.17ZM113.41-29.57L113.41-29.57L113.41-29.57Q114.37-31.49 114.37-33.28L114.37-33.28L114.37-33.28Q114.37-35.07 114.18-36.06L114.18-36.06L114.18-36.06Q113.98-37.06 113.54-37.82L113.54-37.82L113.54-37.82Q112.58-39.49 110.66-39.49L110.66-39.49L110.66-39.49Q108.29-39.49 106.37-37.76L106.37-37.76L106.37-37.76Q104.32-35.97 104.32-33.15L104.32-33.15L104.32-33.15Q104.32-31.36 105.57-29.98L105.57-29.98L105.57-29.98Q106.82-28.61 108.74-27.33L108.74-27.33L108.74-27.33Q110.66-26.05 112.83-24.77L112.83-24.77L112.83-24.77Q115.01-23.49 116.93-21.95L116.93-21.95L116.93-21.95Q121.34-18.43 121.34-13.70L121.34-13.70L121.34-13.70Q121.34-10.50 119.65-7.78L119.65-7.78L119.65-7.78Q117.95-5.06 115.14-3.07L115.14-3.07L115.14-3.07Q108.99 1.28 100.86 1.28L100.86 1.28L100.86 1.28Q94.27 1.28 90.88-0.86L90.88-0.86L90.88-0.86Q87.49-3.01 87.49-6.27L87.49-6.27L87.49-6.27Q87.49-12.10 92.03-13.57L92.03-13.57L92.03-13.57Q93.31-14.02 95.26-14.02L95.26-14.02L95.26-14.02Q97.22-14.02 99.46-13.18L99.46-13.18L99.46-13.18Q98.43-10.56 98.43-8.19L98.43-8.19L98.43-8.19Q98.43-3.07 102.08-3.07L102.08-3.07L102.08-3.07Q104.45-3.07 106.40-4.80L106.40-4.80L106.40-4.80Q108.35-6.53 108.35-8.48L108.35-8.48L108.35-8.48Q108.35-10.43 107.10-11.84L107.10-11.84L107.10-11.84Q105.86-13.25 104-14.37L104-14.37L104-14.37Q102.14-15.49 100-16.58L100-16.58L100-16.58Q97.86-17.66 96-19.20L96-19.20L96-19.20Q91.65-22.72 91.65-28.35L91.65-28.35L91.65-28.35Q91.65-32 93.44-34.85L93.44-34.85L93.44-34.85Q95.23-37.70 98.11-39.62L98.11-39.62L98.11-39.62Q103.87-43.52 110.94-43.52L110.94-43.52L110.94-43.52Q118.02-43.52 121.44-41.41L121.44-41.41L121.44-41.41Q124.86-39.30 124.86-35.71L124.86-35.71L124.86-35.71Q124.86-32.58 122.43-30.59L122.43-30.59L122.43-30.59Q120.32-28.93 117.76-28.93L117.76-28.93L117.76-28.93Q115.20-28.93 113.41-29.57ZM158.40-7.10L158.40-7.10L158.40-7.10Q158.40-4.29 161.28-3.46L161.28-3.46L161.28-3.46Q160.58-1.09 157.82 0.19L157.82 0.19L157.82 0.19Q155.52 1.28 152.99 1.28L152.99 1.28L152.99 1.28Q150.46 1.28 149.15 0.61L149.15 0.61L149.15 0.61Q147.84-0.06 147.14-1.15L147.14-1.15L147.14-1.15Q145.98-2.82 145.98-5.95L145.98-5.95L145.98-5.95Q145.98-7.81 147.01-12.93L147.01-12.93L147.90-17.79L147.90-17.79Q148.99-23.36 148.99-25.41L148.99-25.41L148.99-25.41Q148.99-28.99 147.01-28.99L147.01-28.99L147.01-28.99Q144.51-28.99 142.91-25.34L142.91-25.34L142.91-25.34Q142.27-23.94 141.82-21.82L141.82-21.82L137.47 0L124.61 1.28L133.63-44.80L146.50-46.08L145.98-43.52L145.98-43.52Q144.19-33.66 142.66-30.34L142.66-30.34L142.66-30.34Q146.24-33.92 152.83-33.92L152.83-33.92L152.83-33.92Q159.81-33.92 161.09-29.31L161.09-29.31L161.09-29.31Q161.54-27.84 161.54-26.56L161.54-26.56L161.54-26.56Q161.54-25.28 161.44-24.29L161.44-24.29L161.44-24.29Q161.34-23.30 161.02-21.50L161.02-21.50L160.19-16.90L158.72-9.66L158.72-9.66Q158.40-8.19 158.40-7.10ZM180.42 1.28L180.42 1.28L180.42 1.28Q166.34 1.28 166.34-11.97L166.34-11.97L166.34-11.97Q166.34-21.38 171.52-27.46L171.52-27.46L171.52-27.46Q177.02-33.92 186.56-33.92L186.56-33.92L186.56-33.92Q193.47-33.92 196.99-30.72L196.99-30.72L196.99-30.72Q200.51-27.52 200.51-20.80L200.51-20.80L200.51-20.80Q200.51-10.56 195.01-4.61L195.01-4.61L195.01-4.61Q189.63 1.28 180.42 1.28ZM182.08-26.56L182.08-26.56L182.08-26.56Q181.31-24.83 180.70-22.24L180.70-22.24L180.70-22.24Q180.10-19.65 179.33-15.55L179.33-15.55L179.33-15.55Q178.56-11.46 178.56-6.40L178.56-6.40L178.56-6.40Q178.56-4.74 179.10-3.65L179.10-3.65L179.10-3.65Q179.65-2.56 181.12-2.56L181.12-2.56L181.12-2.56Q182.59-2.56 183.52-3.26L183.52-3.26L183.52-3.26Q184.45-3.97 185.15-5.63L185.15-5.63L185.15-5.63Q186.43-8.58 187.46-14.05L187.46-14.05L187.46-14.05Q188.48-19.52 188.58-21.89L188.58-21.89L188.58-21.89Q188.67-24.26 188.67-26.02L188.67-26.02L188.67-26.02Q188.67-27.78 188.16-28.93L188.16-28.93L188.16-28.93Q187.65-30.08 186.21-30.08L186.21-30.08L186.21-30.08Q184.77-30.08 183.81-29.18L183.81-29.18L183.81-29.18Q182.85-28.29 182.08-26.56ZM234.11-4.38L234.11-4.38L234.11-4.38Q231.42-1.66 227.74-0.19L227.74-0.19L227.74-0.19Q224.06 1.28 220.42 1.28L220.42 1.28L220.42 1.28Q216.77 1.28 215.49 0.64L215.49 0.64L213.50 11.52L200.51 12.80L209.34-32.64L219.78-33.73L218.94-29.31L218.94-29.31Q221.63-33.86 227.20-33.86L227.20-33.86L227.20-33.86Q233.47-33.86 236.80-29.82L236.80-29.82L236.80-29.82Q239.74-26.18 239.74-20.61L239.74-20.61L239.74-20.61Q239.74-15.04 238.27-11.07L238.27-11.07L238.27-11.07Q236.80-7.10 234.11-4.38ZM219.65-22.34L216.26-3.58L216.26-3.58Q217.60-2.43 219.26-2.43L219.26-2.43L219.26-2.43Q220.93-2.43 221.89-3.07L221.89-3.07L221.89-3.07Q222.85-3.71 223.55-4.99L223.55-4.99L223.55-4.99Q225.47-8.45 227.01-18.94L227.01-18.94L227.01-18.94Q227.46-22.02 227.46-25.02L227.46-25.02L227.46-25.02Q227.46-28.03 226.78-28.99L226.78-28.99L226.78-28.99Q226.11-29.95 224.83-29.95L224.83-29.95L224.83-29.95Q220.93-29.95 219.65-22.34L219.65-22.34Z" fill="#f00" stroke="#0f0" stroke-width="1.8"></path></g></g><g><g transform="translate(129.90503385663033, 104.43999671936035)"><path d="M26.11-42.69L26.11-42.69L26.11-42.69Q41.79-42.69 41.79-31.62L41.79-31.62L41.79-31.62Q41.79-25.54 37.89-21.89L37.89-21.89L37.89-21.89Q34.05-18.24 27.33-18.24L27.33-18.24L27.33-18.24Q24.19-18.24 21.76-20.03L21.76-20.03L21.76-20.03Q20.61-20.80 19.84-21.82L19.84-21.82L19.84-21.82Q24.51-21.82 26.98-24.67L26.98-24.67L26.98-24.67Q29.44-27.52 29.44-33.09L29.44-33.09L29.44-33.09Q29.44-38.66 23.94-38.66L23.94-38.66L22.40-38.66L22.40-38.66Q22.02-38.66 21.70-38.59L21.70-38.59L14.34 0L0.45 0L8.32-41.92L8.32-41.92Q15.17-42.56 19.14-42.62L19.14-42.62L19.14-42.62Q23.10-42.69 26.11-42.69ZM47.23-31.17L47.23-31.17L47.23-31.17Q45.06-32.83 45.06-36.38L45.06-36.38L45.06-36.38Q45.06-39.94 47.39-41.79L47.39-41.79L47.39-41.79Q49.73-43.65 53.76-43.65L53.76-43.65L53.76-43.65Q56.32-43.65 62.40-42.75L62.40-42.75L66.75-42.11L66.75-42.11Q68.93-41.86 71.20-41.86L71.20-41.86L71.20-41.86Q73.47-41.86 75.01-42.82L75.01-42.82L75.01-42.82Q77.31-40.77 77.31-37.82L77.31-37.82L77.31-37.82Q77.31-34.88 74.69-32.77L74.69-32.77L74.69-32.77Q72-30.53 68.54-30.53L68.54-30.53L68.54-30.53Q66.88-30.53 64.19-30.98L64.19-30.98L64.19-30.98Q61.06-21.12 61.06-14.27L61.06-14.27L61.06-14.27Q61.06-7.42 64.51-3.84L64.51-3.84L64.51-3.84Q62.91-0.96 60.54 0.16L60.54 0.16L60.54 0.16Q58.18 1.28 54.62 1.28L54.62 1.28L54.62 1.28Q51.07 1.28 48.86-0.67L48.86-0.67L48.86-0.67Q46.66-2.62 46.66-6.66L46.66-6.66L46.66-6.66Q46.66-11.33 49.22-19.01L49.22-19.01L49.22-19.01Q51.78-26.62 55.62-32.45L55.62-32.45L55.62-32.45Q53.76-32.64 51.84-32.64L51.84-32.64L51.84-32.64Q47.87-32.64 47.23-31.17ZM113.41-29.57L113.41-29.57L113.41-29.57Q114.37-31.49 114.37-33.28L114.37-33.28L114.37-33.28Q114.37-35.07 114.18-36.06L114.18-36.06L114.18-36.06Q113.98-37.06 113.54-37.82L113.54-37.82L113.54-37.82Q112.58-39.49 110.66-39.49L110.66-39.49L110.66-39.49Q108.29-39.49 106.37-37.76L106.37-37.76L106.37-37.76Q104.32-35.97 104.32-33.15L104.32-33.15L104.32-33.15Q104.32-31.36 105.57-29.98L105.57-29.98L105.57-29.98Q106.82-28.61 108.74-27.33L108.74-27.33L108.74-27.33Q110.66-26.05 112.83-24.77L112.83-24.77L112.83-24.77Q115.01-23.49 116.93-21.95L116.93-21.95L116.93-21.95Q121.34-18.43 121.34-13.70L121.34-13.70L121.34-13.70Q121.34-10.50 119.65-7.78L119.65-7.78L119.65-7.78Q117.95-5.06 115.14-3.07L115.14-3.07L115.14-3.07Q108.99 1.28 100.86 1.28L100.86 1.28L100.86 1.28Q94.27 1.28 90.88-0.86L90.88-0.86L90.88-0.86Q87.49-3.01 87.49-6.27L87.49-6.27L87.49-6.27Q87.49-12.10 92.03-13.57L92.03-13.57L92.03-13.57Q93.31-14.02 95.26-14.02L95.26-14.02L95.26-14.02Q97.22-14.02 99.46-13.18L99.46-13.18L99.46-13.18Q98.43-10.56 98.43-8.19L98.43-8.19L98.43-8.19Q98.43-3.07 102.08-3.07L102.08-3.07L102.08-3.07Q104.45-3.07 106.40-4.80L106.40-4.80L106.40-4.80Q108.35-6.53 108.35-8.48L108.35-8.48L108.35-8.48Q108.35-10.43 107.10-11.84L107.10-11.84L107.10-11.84Q105.86-13.25 104-14.37L104-14.37L104-14.37Q102.14-15.49 100-16.58L100-16.58L100-16.58Q97.86-17.66 96-19.20L96-19.20L96-19.20Q91.65-22.72 91.65-28.35L91.65-28.35L91.65-28.35Q91.65-32 93.44-34.85L93.44-34.85L93.44-34.85Q95.23-37.70 98.11-39.62L98.11-39.62L98.11-39.62Q103.87-43.52 110.94-43.52L110.94-43.52L110.94-43.52Q118.02-43.52 121.44-41.41L121.44-41.41L121.44-41.41Q124.86-39.30 124.86-35.71L124.86-35.71L124.86-35.71Q124.86-32.58 122.43-30.59L122.43-30.59L122.43-30.59Q120.32-28.93 117.76-28.93L117.76-28.93L117.76-28.93Q115.20-28.93 113.41-29.57ZM158.40-7.10L158.40-7.10L158.40-7.10Q158.40-4.29 161.28-3.46L161.28-3.46L161.28-3.46Q160.58-1.09 157.82 0.19L157.82 0.19L157.82 0.19Q155.52 1.28 152.99 1.28L152.99 1.28L152.99 1.28Q150.46 1.28 149.15 0.61L149.15 0.61L149.15 0.61Q147.84-0.06 147.14-1.15L147.14-1.15L147.14-1.15Q145.98-2.82 145.98-5.95L145.98-5.95L145.98-5.95Q145.98-7.81 147.01-12.93L147.01-12.93L147.90-17.79L147.90-17.79Q148.99-23.36 148.99-25.41L148.99-25.41L148.99-25.41Q148.99-28.99 147.01-28.99L147.01-28.99L147.01-28.99Q144.51-28.99 142.91-25.34L142.91-25.34L142.91-25.34Q142.27-23.94 141.82-21.82L141.82-21.82L137.47 0L124.61 1.28L133.63-44.80L146.50-46.08L145.98-43.52L145.98-43.52Q144.19-33.66 142.66-30.34L142.66-30.34L142.66-30.34Q146.24-33.92 152.83-33.92L152.83-33.92L152.83-33.92Q159.81-33.92 161.09-29.31L161.09-29.31L161.09-29.31Q161.54-27.84 161.54-26.56L161.54-26.56L161.54-26.56Q161.54-25.28 161.44-24.29L161.44-24.29L161.44-24.29Q161.34-23.30 161.02-21.50L161.02-21.50L160.19-16.90L158.72-9.66L158.72-9.66Q158.40-8.19 158.40-7.10ZM180.42 1.28L180.42 1.28L180.42 1.28Q166.34 1.28 166.34-11.97L166.34-11.97L166.34-11.97Q166.34-21.38 171.52-27.46L171.52-27.46L171.52-27.46Q177.02-33.92 186.56-33.92L186.56-33.92L186.56-33.92Q193.47-33.92 196.99-30.72L196.99-30.72L196.99-30.72Q200.51-27.52 200.51-20.80L200.51-20.80L200.51-20.80Q200.51-10.56 195.01-4.61L195.01-4.61L195.01-4.61Q189.63 1.28 180.42 1.28ZM182.08-26.56L182.08-26.56L182.08-26.56Q181.31-24.83 180.70-22.24L180.70-22.24L180.70-22.24Q180.10-19.65 179.33-15.55L179.33-15.55L179.33-15.55Q178.56-11.46 178.56-6.40L178.56-6.40L178.56-6.40Q178.56-4.74 179.10-3.65L179.10-3.65L179.10-3.65Q179.65-2.56 181.12-2.56L181.12-2.56L181.12-2.56Q182.59-2.56 183.52-3.26L183.52-3.26L183.52-3.26Q184.45-3.97 185.15-5.63L185.15-5.63L185.15-5.63Q186.43-8.58 187.46-14.05L187.46-14.05L187.46-14.05Q188.48-19.52 188.58-21.89L188.58-21.89L188.58-21.89Q188.67-24.26 188.67-26.02L188.67-26.02L188.67-26.02Q188.67-27.78 188.16-28.93L188.16-28.93L188.16-28.93Q187.65-30.08 186.21-30.08L186.21-30.08L186.21-30.08Q184.77-30.08 183.81-29.18L183.81-29.18L183.81-29.18Q182.85-28.29 182.08-26.56ZM234.11-4.38L234.11-4.38L234.11-4.38Q231.42-1.66 227.74-0.19L227.74-0.19L227.74-0.19Q224.06 1.28 220.42 1.28L220.42 1.28L220.42 1.28Q216.77 1.28 215.49 0.64L215.49 0.64L213.50 11.52L200.51 12.80L209.34-32.64L219.78-33.73L218.94-29.31L218.94-29.31Q221.63-33.86 227.20-33.86L227.20-33.86L227.20-33.86Q233.47-33.86 236.80-29.82L236.80-29.82L236.80-29.82Q239.74-26.18 239.74-20.61L239.74-20.61L239.74-20.61Q239.74-15.04 238.27-11.07L238.27-11.07L238.27-11.07Q236.80-7.10 234.11-4.38ZM219.65-22.34L216.26-3.58L216.26-3.58Q217.60-2.43 219.26-2.43L219.26-2.43L219.26-2.43Q220.93-2.43 221.89-3.07L221.89-3.07L221.89-3.07Q222.85-3.71 223.55-4.99L223.55-4.99L223.55-4.99Q225.47-8.45 227.01-18.94L227.01-18.94L227.01-18.94Q227.46-22.02 227.46-25.02L227.46-25.02L227.46-25.02Q227.46-28.03 226.78-28.99L226.78-28.99L226.78-28.99Q226.11-29.95 224.83-29.95L224.83-29.95L224.83-29.95Q220.93-29.95 219.65-22.34L219.65-22.34Z" fill="none" stroke="#fff" stroke-width="2.1"></path></g></g></g><style>text {
  font-size: 64px;
  font-family: Arial Black;
  dominant-baseline: central;
  text-anchor: middle;
}</style></svg>